<svg xmlns="http://www.w3.org/2000/svg" xmlns:xlink="http://www.w3.org/1999/xlink" enable-background="new 0 0 32 32" height="32" version="1.1" width="32" xml:space="preserve"><rect id="backgroundrect" width="100%" height="100%" x="0" y="0" fill="none" stroke="none"/><g class="currentLayer" style=""><title>Layer 1</title><path d="M20.377,16.519l6.567-6.566c0.962-0.963,0.962-2.539,0-3.502l-0.876-0.875c-0.963-0.964-2.539-0.964-3.501,0  L16,12.142L9.433,5.575c-0.962-0.963-2.538-0.963-3.501,0L5.056,6.45c-0.962,0.963-0.962,2.539,0,3.502l6.566,6.566l-6.566,6.567  c-0.962,0.963-0.962,2.538,0,3.501l0.876,0.876c0.963,0.963,2.539,0.963,3.501,0L16,20.896l6.567,6.566  c0.962,0.963,2.538,0.963,3.501,0l0.876-0.876c0.962-0.963,0.962-2.538,0-3.501L20.377,16.519z" fill="#601313" id="svg_1" class="selected" fill-opacity="1"/></g></svg>