<svg xmlns="http://www.w3.org/2000/svg" version="1.0" width="1280.000000" height="1280.000000" preserveAspectRatio="xMidYMid meet"><rect id="backgroundrect" width="100%" height="100%" x="0" y="0" fill="none" stroke="none"/>
<metadata>
Created by potrace 1.15, written by Peter Selinger 2001-2017
</metadata>

<g class="currentLayer" style=""><title>Layer 1</title><g transform="translate(0,1280) scale(0.10000000149011612,-0.10000000149011612) " fill="#393d47" stroke="none" id="svg_1" class="selected" fill-opacity="1">
<path d="M8855 11266 c-75 -34 -148 -122 -250 -301 -192 -333 -284 -453 -533 -696 -194 -190 -388 -349 -550 -452 -437 -277 -1002 -803 -1563 -1457 -144 -168 -193 -231 -276 -355 -142 -214 -278 -456 -453 -805 -65 -129 -126 -242 -136 -252 -29 -25 -274 -144 -519 -252 -121 -54 -257 -115 -302 -136 -147 -69 -238 -177 -295 -349 -30 -92 -32 -104 -36 -296 -15 -686 186 -1540 580 -2460 126 -295 306 -656 370 -740 95 -126 235 -211 413 -252 70 -16 130 -18 470 -19 360 0 397 -2 486 -22 158 -35 292 -70 422 -111 428 -136 1016 -198 1628 -172 841 36 1494 184 1819 413 93 64 277 243 377 364 556 676 959 1770 1088 2959 22 201 31 711 16 884 -23 260 -69 450 -143 594 -47 91 -107 149 -199 193 -117 57 -184 69 -379 69 -163 0 -187 -3 -350 -37 -492 -104 -912 -140 -1190 -104 -239 32 -516 107 -692 189 -139 64 -272 181 -346 302 -86 141 -83 326 8 505 54 106 128 197 267 325 256 238 465 465 633 685 251 330 370 626 370 921 0 260 -109 520 -298 708 -167 166 -309 217 -437 157z" id="svg_2" fill="#393d47"/>
<path d="M3510 6733 c-14 -2 -249 -40 -522 -83 -643 -103 -756 -130 -994 -245 -322 -155 -513 -378 -595 -692 -58 -225 -20 -794 91 -1342 64 -319 185 -749 290 -1036 292 -797 701 -1368 1185 -1653 221 -130 461 -179 825 -169 280 8 508 42 850 127 197 48 258 69 344 117 124 68 226 185 226 259 0 20 -6 23 -57 29 -318 33 -400 59 -536 170 -131 108 -316 403 -557 885 -415 831 -639 1635 -681 2448 -14 272 -1 573 31 702 39 159 100 259 218 361 47 40 56 83 24 112 -18 17 -80 21 -142 10z" id="svg_3" fill="#393d47"/>
</g></g></svg>